<?xml version="1.0" encoding="utf-8"?>
<!-- Generator: Adobe Illustrator 21.0.0, SVG Export Plug-In . SVG Version: 6.00 Build 0)  -->
<svg version="1.1"
	 id="Layer_1" inkscape:version="0.92.3 (2405546, 2018-03-11)" sodipodi:docname="black.svg" xmlns:cc="http://creativecommons.org/ns#" xmlns:dc="http://purl.org/dc/elements/1.1/" xmlns:inkscape="http://www.inkscape.org/namespaces/inkscape" xmlns:rdf="http://www.w3.org/1999/02/22-rdf-syntax-ns#" xmlns:sodipodi="http://sodipodi.sourceforge.net/DTD/sodipodi-0.dtd" xmlns:svg="http://www.w3.org/2000/svg"
	 xmlns="http://www.w3.org/2000/svg" xmlns:xlink="http://www.w3.org/1999/xlink" x="0px" y="0px" viewBox="0 0 1333.3 1333.3"
	 style="enable-background:new 0 0 1333.3 1333.3;" xml:space="preserve">
<style type="text/css">
	.st0{fill:#EDB223;}
</style>
<g>
	<polygon class="st0" points="127,876 216.2,1030.4 37.9,1030.4 	"/>
	<polygon class="st0" points="127,451.9 37.9,297.5 216.2,297.5 	"/>
	<path class="st0" d="M1145.4,533.3c-11.4-41.7-28.1-81.2-49.3-117.7c-10.9-18.8-23.1-36.9-36.3-54c-13.2-17.2-27.5-33.4-42.9-48.7
		s-31.6-29.5-48.8-42.7S932.9,244.9,914,234c-17.8-10.3-36.3-19.5-55.5-27.5c-19.1-8.1-38.8-14.9-59.1-20.6
		c-11.6-3.2-23.3-6-35.2-8.4L669.7,13.4l-94,162.8l0,0c-56.3,10.5-109.3,30.5-157.3,58.3l0,0c-37.5,21.8-71.9,48.3-102.4,78.8
		c-15.2,15.2-29.5,31.5-42.7,48.6s-25.2,35.1-36.1,53.8c-21.2,36.5-37.9,76-49.3,117.6c-11.4,41.6-17.5,85.5-17.5,130.7
		c0,45.1,6,88.8,17.4,130.3c11.3,41.5,27.9,80.9,49,117.4c10.9,18.8,22.9,36.8,36.1,53.9c13.2,17.1,27.4,33.4,42.6,48.7
		c15.2,15.3,31.5,29.6,48.6,42.8c17.1,13.2,35.1,25.3,53.9,36.2c23.8,13.8,48.8,25.8,74.9,35.5c26.1,9.8,53.2,17.4,81.1,22.7
		l94.1,163.1l94.5-163.7c12.5-2.5,24.8-5.4,36.9-8.8c20.3-5.7,40.1-12.6,59.3-20.7s37.7-17.3,55.6-27.7c18.9-10.9,36.9-23,54.1-36.2
		c17.2-13.2,33.5-27.5,48.8-42.8c15.3-15.3,29.6-31.6,42.8-48.8c13.2-17.2,25.3-35.3,36.2-54.1c21.1-36.5,37.7-75.9,49.1-117.4
		c11.3-41.6,17.4-85.3,17.4-130.3C1162.9,618.7,1156.8,574.9,1145.4,533.3z M769,550.1c23.9,21,41.3,49.2,48.7,81.3
		c2.6,11.3,4,23.2,4,35.3c0,70-46.4,129.2-110.2,148.5c-14.2,4.3-29.3,6.6-45,6.6c-15.6,0-30.7-2.3-45-6.6
		c-63.8-19.3-110.2-78.5-110.2-148.5c0-12.1,1.4-24,4-35.3c7.5-32,24.8-60.3,48.7-81.3c27.3-24,63.1-38.6,102.4-38.6
		C705.9,511.5,741.7,526.1,769,550.1z M300.7,841c-23.1-47.6-37.2-100.3-40.1-156c-0.4-7-0.6-14-0.6-21.1s0.2-14.1,0.6-21.1
		c3.4-66.2,22.7-128.3,54.2-182.4c8.9-15.3,18.8-30.1,29.6-44.1c10.8-14,22.4-27.3,34.9-39.8s25.8-24.1,39.8-34.9
		s28.7-20.7,44.1-29.6c25.9-15.1,53.7-27.4,82.8-36.4c29.1-9.1,59.7-15,91.2-17.2L300.7,841z M954.1,951.3
		c-10,10-20.6,19.5-31.6,28.5c-11,8.9-22.5,17.3-34.5,25.1c-6,3.9-12.1,7.7-18.3,11.3c-6,3.5-12.1,6.8-18.3,10l0,0
		c-16.7,8.5-33.9,16-51.8,22.1c-20.8,7.2-42.4,12.8-64.6,16.6c-22.2,3.8-45,5.7-68.3,5.7c-37.1,0-73.1-5-107.3-14.4
		s-66.6-23.1-96.6-40.5c-15.4-8.9-30.1-18.9-44.1-29.7s-27.3-22.5-39.8-35.1c-8.8-8.9-17.3-18.1-25.3-27.8s-15.6-19.7-22.7-30h671.5
		C988.1,914,971.9,933.5,954.1,951.3z M1062.7,756.2c-6.9,29.6-17.1,58.1-30.1,84.8l-168-291l-70.8-122.6l-97.7-169.1
		c35.9,2.6,70.6,9.9,103.3,21.3c8.9,3.1,17.7,6.5,26.4,10.2c8.6,3.7,17.1,7.7,25.5,11.9l0,0c6.1,3.1,12,6.4,17.9,9.8
		c6.3,3.6,12.6,7.5,18.7,11.5c11.8,7.7,23.3,16,34.2,24.9c11,8.9,21.4,18.3,31.4,28.3c12.6,12.5,24.3,25.8,35.1,39.9
		c10.9,14.1,20.8,28.8,29.7,44.3c17.4,30,31.1,62.3,40.4,96.5c9.3,34.2,14.3,70.1,14.3,107.2
		C1073.3,695.7,1069.6,726.5,1062.7,756.2z"/>
	<polygon class="st0" points="1206.3,876 1295.5,1030.4 1117.2,1030.4 	"/>
	<polygon class="st0" points="1206.3,451.9 1117.2,297.5 1295.5,297.5 	"/>
</g>
</svg>
